<?xml version="1.0" encoding="UTF-8" standalone="no"?>
<!-- Created with Inkscape (http://www.inkscape.org/) -->
<svg
   xmlns:dc="http://purl.org/dc/elements/1.1/"
   xmlns:cc="http://creativecommons.org/ns#"
   xmlns:rdf="http://www.w3.org/1999/02/22-rdf-syntax-ns#"
   xmlns:svg="http://www.w3.org/2000/svg"
   xmlns="http://www.w3.org/2000/svg"
   xmlns:sodipodi="http://sodipodi.sourceforge.net/DTD/sodipodi-0.dtd"
   xmlns:inkscape="http://www.inkscape.org/namespaces/inkscape"
   width="64px"
   height="64px"
   id="svg5535"
   sodipodi:version="0.32"
   inkscape:version="0.46"
   sodipodi:docname="cc.svg"
   inkscape:output_extension="org.inkscape.output.svg.inkscape">
  <defs
     id="defs5537">
    <inkscape:perspective
       sodipodi:type="inkscape:persp3d"
       inkscape:vp_x="0 : 32 : 1"
       inkscape:vp_y="0 : 1000 : 0"
       inkscape:vp_z="64 : 32 : 1"
       inkscape:persp3d-origin="32 : 21.333333 : 1"
       id="perspective5543" />
  </defs>
  <sodipodi:namedview
     id="base"
     pagecolor="#ffffff"
     bordercolor="#666666"
     borderopacity="1.0"
     inkscape:pageopacity="0.0"
     inkscape:pageshadow="2"
     inkscape:zoom="5.5"
     inkscape:cx="50.41388"
     inkscape:cy="33.444422"
     inkscape:current-layer="layer1"
     showgrid="true"
     inkscape:document-units="px"
     inkscape:grid-bbox="true"
     inkscape:window-width="789"
     inkscape:window-height="597"
     inkscape:window-x="559"
     inkscape:window-y="352" />
  <metadata
     id="metadata5540">
    <rdf:RDF>
      <cc:Work
         rdf:about="">
        <dc:format>image/svg+xml</dc:format>
        <dc:type
           rdf:resource="http://purl.org/dc/dcmitype/StillImage" />
      </cc:Work>
    </rdf:RDF>
  </metadata>
  <g
     id="layer1"
     inkscape:label="Layer 1"
     inkscape:groupmode="layer">
    <path
       style="fill:#008000;fill-rule:evenodd;stroke:#000000;stroke-width:1px;stroke-linecap:butt;stroke-linejoin:miter;stroke-opacity:1"
       d="M 28.909091,57.636364 L 35.272727,43.454546 L 52.727273,43.272728 L 59.090909,57.090909 L 28.909091,57.636364 z"
       id="path6074" />
    <path
       style="fill:#008000;fill-rule:evenodd;stroke:#000000;stroke-width:1px;stroke-linecap:butt;stroke-linejoin:miter;stroke-opacity:1"
       d="M 1.2727273,39.545455 L 7.6363632,25.363637 L 25.090909,25.181819 L 31.454545,39 L 1.2727273,39.545455 z"
       id="path6076" />
    <path
       style="fill:#008000;fill-rule:evenodd;stroke:#000000;stroke-width:1px;stroke-linecap:butt;stroke-linejoin:miter;stroke-opacity:1"
       d="M 29.090909,57.636364 L 1.0909091,39.636364 L 7.8181822,24.727273 L 35.636363,43.636364 L 29.090909,57.636364 z"
       id="path6078" />
    <path
       style="fill:#008000;fill-rule:evenodd;stroke:#000000;stroke-width:1px;stroke-linecap:butt;stroke-linejoin:miter;stroke-opacity:1"
       d="M 35.454545,43.636364 L 52.727273,43.272728 L 25.090909,25.090909 L 7.6363632,25.090909 L 35.454545,43.636364 z"
       id="path6080" />
    <path
       style="fill:#008080;fill-rule:evenodd;stroke:#000000;stroke-width:1px;stroke-linecap:butt;stroke-linejoin:miter;stroke-opacity:1"
       d="M 25.818182,41.636364 L 32.181818,45.454546 L 30.909091,48 L 24.363636,43.818182 L 25.818182,41.636364 z"
       id="path6082" />
    <path
       style="fill:#008080;fill-rule:evenodd;stroke:#000000;stroke-width:1px;stroke-linecap:butt;stroke-linejoin:miter;stroke-opacity:1"
       d="M 17.000001,36.090909 L 23.363637,39.909091 L 22.09091,42.454545 L 15.545455,38.272727 L 17.000001,36.090909 z"
       id="path6084" />
    <path
       style="fill:#008080;fill-rule:evenodd;stroke:#000000;stroke-width:1px;stroke-linecap:butt;stroke-linejoin:miter;stroke-opacity:1"
       d="M 8.2727282,30.454546 L 14.636364,34.272728 L 13.363637,36.818182 L 6.8181822,32.636364 L 8.2727282,30.454546 z"
       id="path6086" />
    <path
       style="fill:#666666;fill-rule:evenodd;stroke:#000000;stroke-width:1px;stroke-linecap:butt;stroke-linejoin:miter;stroke-opacity:1"
       d="M 38.363636,50.038963 L 38.545454,57.636366 L 43.454545,57.441561 L 43.272727,49.454547 L 38.363636,50.038963 z"
       id="path6088" />
    <path
       style="fill:none;fill-rule:evenodd;stroke:#000000;stroke-width:1px;stroke-linecap:butt;stroke-linejoin:miter;stroke-opacity:1"
       d="M 49.272727,60.909089 L 60.363636,60.909089 L 54.727273,15.965448 L 49.272727,60.909089 z"
       id="path6090" />
    <path
       style="fill:none;fill-rule:evenodd;stroke:#000000;stroke-width:1px;stroke-linecap:butt;stroke-linejoin:miter;stroke-opacity:1"
       d="M 49.454546,60.909089 L 59.272727,50.56641 L 52,41.728121 L 57.090909,34.206172 L 53.272727,28.188613 L 55.636364,23.487396"
       id="path6092" />
    <path
       style="fill:none;fill-rule:evenodd;stroke:#000000;stroke-width:1px;stroke-linecap:butt;stroke-linejoin:miter;stroke-opacity:1"
       d="M 58.181818,3.5542343 L 58.181818,3.5542343 L 58.363636,17.657886 L 58.363636,17.657886 L 51.636364,14.837155 L 51.636364,0.54545476"
       id="path6094" />
    <path
       style="fill:none;fill-rule:evenodd;stroke:#000000;stroke-width:1px;stroke-linecap:butt;stroke-linejoin:miter;stroke-opacity:1"
       d="M 54.909091,16.153497 L 55.090909,2.049844"
       id="path6096" />
    <path
       sodipodi:type="arc"
       style="fill:#6f918a;fill-opacity:1;fill-rule:evenodd;stroke:none;stroke-width:5;stroke-linejoin:miter;stroke-miterlimit:4;stroke-dasharray:none;stroke-dashoffset:0;stroke-opacity:1"
       id="path6098"
       sodipodi:cx="52.727272"
       sodipodi:cy="24.636364"
       sodipodi:rx="2.5454545"
       sodipodi:ry="5.5454545"
       d="M 55.272727,24.636364 A 2.5454545,5.5454545 0 1 1 50.181818,24.636364 A 2.5454545,5.5454545 0 1 1 55.272727,24.636364 z"
       transform="matrix(1.4782773,0.1184694,-0.1391242,1.4943036,-23.447971,-18.424417)" />
    <path
       sodipodi:type="arc"
       style="fill:#6f918a;fill-opacity:1;fill-rule:evenodd;stroke:none;stroke-width:5;stroke-linejoin:miter;stroke-miterlimit:4;stroke-dasharray:none;stroke-dashoffset:0;stroke-opacity:1"
       id="path6100"
       sodipodi:cx="57.81818"
       sodipodi:cy="31"
       sodipodi:rx="2.7272727"
       sodipodi:ry="5.3636365"
       d="M 60.545453,31 A 2.7272727,5.3636365 0 1 1 55.090907,31 A 2.7272727,5.3636365 0 1 1 60.545453,31 z"
       transform="matrix(0.9975072,-7.056447e-2,7.056447e-2,0.9975072,-1.6797342,6.8844581)" />
  </g>
</svg>
