<?xml version="1.0" encoding="UTF-8" standalone="no"?>
<!-- Created with Inkscape (http://www.inkscape.org/) -->
<svg
   xmlns:dc="http://purl.org/dc/elements/1.1/"
   xmlns:cc="http://creativecommons.org/ns#"
   xmlns:rdf="http://www.w3.org/1999/02/22-rdf-syntax-ns#"
   xmlns:svg="http://www.w3.org/2000/svg"
   xmlns="http://www.w3.org/2000/svg"
   xmlns:sodipodi="http://sodipodi.sourceforge.net/DTD/sodipodi-0.dtd"
   xmlns:inkscape="http://www.inkscape.org/namespaces/inkscape"
   width="64px"
   height="64px"
   id="svg2406"
   sodipodi:version="0.32"
   inkscape:version="0.46"
   sodipodi:docname="generator.svg"
   inkscape:output_extension="org.inkscape.output.svg.inkscape">
  <defs
     id="defs2408">
    <inkscape:perspective
       sodipodi:type="inkscape:persp3d"
       inkscape:vp_x="0 : 32 : 1"
       inkscape:vp_y="0 : 1000 : 0"
       inkscape:vp_z="64 : 32 : 1"
       inkscape:persp3d-origin="32 : 21.333333 : 1"
       id="perspective2414" />
  </defs>
  <sodipodi:namedview
     id="base"
     pagecolor="#ffffff"
     bordercolor="#666666"
     borderopacity="1.0"
     inkscape:pageopacity="0.0"
     inkscape:pageshadow="2"
     inkscape:zoom="5.5"
     inkscape:cx="28.612178"
     inkscape:cy="31.624545"
     inkscape:current-layer="layer1"
     showgrid="true"
     inkscape:document-units="px"
     inkscape:grid-bbox="true"
     inkscape:window-width="789"
     inkscape:window-height="688"
     inkscape:window-x="348"
     inkscape:window-y="144" />
  <metadata
     id="metadata2411">
    <rdf:RDF>
      <cc:Work
         rdf:about="">
        <dc:format>image/svg+xml</dc:format>
        <dc:type
           rdf:resource="http://purl.org/dc/dcmitype/StillImage" />
      </cc:Work>
    </rdf:RDF>
  </metadata>
  <g
     id="layer1"
     inkscape:label="Layer 1"
     inkscape:groupmode="layer">
    <path
       style="fill:#e6e6e6;fill-rule:evenodd;stroke:#000000;stroke-width:1px;stroke-linecap:butt;stroke-linejoin:miter;stroke-opacity:1"
       d="M 136.69989,0.54545426 L 142.73371,0.77510134 L 144.18182,53.594013 L 135.97583,53.594013 L 136.69989,0.54545426 z"
       id="path2418" />
    <path
       style="fill:#b3b3b3;fill-rule:evenodd;stroke:#000000;stroke-width:1px;stroke-linecap:butt;stroke-linejoin:miter;stroke-opacity:1"
       d="M 126.32172,11.338884 L 131.39013,11.338884 L 133.0796,57.268372 L 125.35631,57.268372 L 126.32172,11.338884 z"
       id="path2420" />
    <rect
       style="fill:#550000;fill-opacity:1;fill-rule:evenodd;stroke:none;stroke-width:1;stroke-linejoin:miter;stroke-miterlimit:4;stroke-dasharray:none;stroke-dashoffset:0;stroke-opacity:1"
       id="rect2426"
       width="37.409672"
       height="18.601444"
       x="81.671471"
       y="31.777508" />
    <rect
       style="fill:#800000;fill-opacity:1;fill-rule:evenodd;stroke:none;stroke-width:1;stroke-linejoin:miter;stroke-miterlimit:4;stroke-dasharray:none;stroke-dashoffset:0;stroke-opacity:1"
       id="rect2422"
       width="39.099136"
       height="17.912502"
       x="103.15186"
       y="40.044811" />
    <rect
       style="fill:#550000;fill-opacity:1;fill-rule:evenodd;stroke:none;stroke-width:1;stroke-linejoin:miter;stroke-miterlimit:4;stroke-dasharray:none;stroke-dashoffset:0;stroke-opacity:1"
       id="rect3175"
       width="10.366171"
       height="15.584957"
       x="107.21567"
       y="42.230522" />
    <path
       style="fill:#000000;fill-opacity:1;fill-rule:evenodd;stroke:#000000;stroke-width:1px;stroke-linecap:butt;stroke-linejoin:miter;stroke-opacity:1"
       d="M 101.34802,63.636362 L 115.43037,45.610388 L 111.12743,45.610388 L 96.653909,63.260822 L 101.34802,63.636362 z"
       id="path2391" />
    <rect
       style="fill:#2b0000;fill-opacity:1;fill-rule:evenodd;stroke:none;stroke-width:1;stroke-linejoin:miter;stroke-miterlimit:4;stroke-dasharray:none;stroke-dashoffset:0;stroke-opacity:1"
       id="rect3177"
       width="8.9970531"
       height="15.772727"
       x="82.962738"
       y="34.719692" />
    <rect
       style="fill:#333333;fill-opacity:1;fill-rule:evenodd;stroke:#afb5af;stroke-width:1;stroke-linejoin:miter;stroke-miterlimit:4;stroke-dasharray:none;stroke-dashoffset:0;stroke-opacity:1"
       id="rect3179"
       width="0.5867644"
       height="9.3885288"
       x="95.578171"
       y="40.165043" />
    <path
       style="fill:#000000;fill-opacity:1;fill-rule:evenodd;stroke:#000000;stroke-width:1px;stroke-linecap:butt;stroke-linejoin:miter;stroke-opacity:1"
       d="M 85.896561,38.662877 L 95.871556,52.557899 L 99.392143,52.557899 L 89.612735,38.662877 L 85.896561,38.662877 z"
       id="path2393" />
    <rect
       style="fill:#e6e6e6;fill-opacity:1;fill-rule:evenodd;stroke:#eaebea;stroke-width:1;stroke-linejoin:miter;stroke-miterlimit:4;stroke-dasharray:none;stroke-dashoffset:0;stroke-opacity:1"
       id="rect3165"
       width="0.5867644"
       height="9.3885288"
       x="137.14066"
       y="48.051403" />
    <rect
       style="fill:#e6e6e6;fill-opacity:1;fill-rule:evenodd;stroke:#eaebea;stroke-width:1;stroke-linejoin:miter;stroke-miterlimit:4;stroke-dasharray:none;stroke-dashoffset:0;stroke-opacity:1"
       id="rect3167"
       width="0.5867644"
       height="9.3885288"
       x="131.95758"
       y="48.051407" />
    <rect
       style="fill:#e6e6e6;fill-opacity:1;fill-rule:evenodd;stroke:#eaebea;stroke-width:1;stroke-linejoin:miter;stroke-miterlimit:4;stroke-dasharray:none;stroke-dashoffset:0;stroke-opacity:1"
       id="rect3169"
       width="0.5867644"
       height="9.3885288"
       x="126.28551"
       y="48.051403" />
    <rect
       style="fill:#e6e6e6;fill-opacity:1;fill-rule:evenodd;stroke:#eaebea;stroke-width:1;stroke-linejoin:miter;stroke-miterlimit:4;stroke-dasharray:none;stroke-dashoffset:0;stroke-opacity:1"
       id="rect3171"
       width="0.5867644"
       height="9.3885288"
       x="120.80904"
       y="48.051407" />
    <rect
       style="fill:#333333;fill-opacity:1;fill-rule:evenodd;stroke:#afb5af;stroke-width:1;stroke-linejoin:miter;stroke-miterlimit:4;stroke-dasharray:none;stroke-dashoffset:0;stroke-opacity:1"
       id="rect3181"
       width="0.5867644"
       height="9.3885288"
       x="100.66347"
       y="40.35281" />
    <path
       style="fill:#999999;fill-rule:evenodd;stroke:#000000;stroke-width:1px;stroke-linecap:butt;stroke-linejoin:miter;stroke-opacity:1"
       d="M 46.181819,61.454546 L 46,36.000001 L 62.363637,33.09091 L 62.181819,57.818183 L 46.181819,61.454546 z"
       id="path2441"
       sodipodi:nodetypes="ccccc" />
    <path
       style="fill:#666666;fill-rule:evenodd;stroke:#000000;stroke-width:1px;stroke-linecap:butt;stroke-linejoin:miter;stroke-opacity:1"
       d="M 42.727272,51.636364 L 11.818181,59.090909 L 11.818181,43.090909 L 42.90909,36 L 42.727272,51.636364 z"
       id="path2447" />
    <path
       style="fill:#666666;fill-rule:evenodd;stroke:#000000;stroke-width:1px;stroke-linecap:butt;stroke-linejoin:miter;stroke-opacity:1"
       d="M 11.818181,59.272727 L 2,51.090909 L 2,35.090909 L 11.636363,43.090909 L 11.818181,59.272727 z"
       id="path2449"
       sodipodi:nodetypes="ccccc" />
    <path
       style="fill:#666666;fill-rule:evenodd;stroke:#000000;stroke-width:1px;stroke-linecap:butt;stroke-linejoin:miter;stroke-opacity:1"
       d="M 12,43.272727 L 42.90909,35.818182 L 32.545454,28 L 2,35.090909 L 12,43.272727 z"
       id="path2451"
       sodipodi:nodetypes="ccccc" />
    <path
       style="fill:#999999;fill-rule:evenodd;stroke:#000000;stroke-width:1px;stroke-linecap:butt;stroke-linejoin:miter;stroke-opacity:1"
       d="M 46.181819,36.363637 L 62.18182,33.272728 L 49.818183,24.545455 L 34.909091,28.000001 L 46.181819,36.363637 z"
       id="path2445"
       sodipodi:nodetypes="ccccc" />
    <path
       style="fill:#999999;fill-rule:evenodd;stroke:#000000;stroke-width:1px;stroke-linecap:butt;stroke-linejoin:miter;stroke-opacity:1"
       d="M 46.363637,61.636364 L 34.909091,52.727273 L 34.909092,28.363636 L 46.363637,35.818183 L 46.363637,61.636364 z"
       id="path2443"
       sodipodi:nodetypes="ccccc" />
    <g
       id="g2435"
       transform="matrix(1.7920896,0,0,1.3702676,-55.930315,8.7828426)"
       style="fill:#b3b3b3">
      <path
         sodipodi:nodetypes="ccccc"
         id="path2437"
         d="M 48.450717,-3.6432777 L 47.721832,37.356747 C 49.361823,38.977863 51.001814,39.338767 52.641805,37.179258 L 51.91292,-3.6432777 C 50.334108,-2.0568592 49.619514,-2.9315479 48.450717,-3.6432777 z"
         style="fill:#b3b3b3;fill-rule:evenodd;stroke:#000000;stroke-width:0.63119805px;stroke-linecap:butt;stroke-linejoin:miter;stroke-opacity:1" />
      <path
         id="path2439"
         d="M 48.450717,-3.820767 L 49.908486,-2.578342 L 51.001814,-2.9333206 L 52.277362,-4.1757456 L 51.001814,-5.2406812 L 49.726265,-5.5956598 L 48.450717,-3.820767 z"
         style="fill:#b3b3b3;fill-rule:evenodd;stroke:#000000;stroke-width:0.63119805px;stroke-linecap:butt;stroke-linejoin:miter;stroke-opacity:1" />
    </g>
    <path
       style="fill:#808080;fill-rule:evenodd;stroke:#000000;stroke-width:0.93512183px;stroke-linecap:butt;stroke-linejoin:miter;stroke-opacity:1"
       d="M -43.291786,48.61174 L -42.96753,61.271085 L -15.405761,54.13906 L -15.567889,40.23161 L -43.291786,48.61174 z"
       id="path2408" />
    <path
       style="fill:none;fill-rule:evenodd;stroke:#000000;stroke-width:0.93512183px;stroke-linecap:butt;stroke-linejoin:miter;stroke-opacity:1"
       d="M -43.291786,48.61174 L -53.181598,41.301414 L -53.505853,55.208864 L -42.96753,61.449386 L -43.291786,48.61174 z"
       id="path2410" />
    <path
       style="fill:#808080;fill-rule:evenodd;stroke:#000000;stroke-width:0.93512183px;stroke-linecap:butt;stroke-linejoin:miter;stroke-opacity:1"
       d="M -53.181598,41.301414 L -24.971316,33.099586 L -15.892144,40.23161 L -42.481146,47.898538 L -53.181598,41.301414 z"
       id="path2412" />
    <path
       style="fill:#808080;fill-rule:evenodd;stroke:#000000;stroke-width:0.93512183px;stroke-linecap:butt;stroke-linejoin:miter;stroke-opacity:1"
       d="M -64.044177,44.510825 L -24.971316,32.742985 L -33.564102,25.967561 L -71.015684,36.665599 L -64.044177,44.510825 z"
       id="path2414" />
    <path
       style="fill:none;fill-rule:evenodd;stroke:#000000;stroke-width:0.93512183px;stroke-linecap:butt;stroke-linejoin:miter;stroke-opacity:1"
       d="M -64.044177,44.332525 L -64.206306,57.348471 L -53.343726,54.852262 L -53.343726,42.014618 L -64.044177,44.332525 z"
       id="path2416" />
    <path
       style="fill:none;fill-rule:evenodd;stroke:#000000;stroke-width:0.93512183px;stroke-linecap:butt;stroke-linejoin:miter;stroke-opacity:1"
       d="M -64.368434,57.17017 L -70.577894,50.751348 L -70.853556,36.843899 L -64.368434,43.975924 L -64.368434,57.17017 z"
       id="path2419"
       sodipodi:nodetypes="ccccc" />
    <path
       style="fill:none;fill-rule:evenodd;stroke:#000000;stroke-width:0.98911828px;stroke-linecap:butt;stroke-linejoin:miter;stroke-opacity:1"
       d="M 101.2689,2.1287594 L 100.54001,43.128784 C 102.18,44.7499 103.82,45.110804 105.45999,42.951295 L 104.7311,2.1287594 C 103.15229,3.7151779 102.4377,2.8404892 101.2689,2.1287594 z"
       id="path2423"
       sodipodi:nodetypes="ccccc" />
    <path
       style="fill:none;fill-rule:evenodd;stroke:#000000;stroke-width:0.98911828px;stroke-linecap:butt;stroke-linejoin:miter;stroke-opacity:1"
       d="M 101.2689,1.9512701 L 102.72667,3.1936951 L 103.82,2.8387165 L 105.09554,1.5962915 L 103.82,0.5313559 L 102.54445,0.1763773 L 101.2689,1.9512701 z"
       id="path2425" />
    <g
       id="g2453"
       transform="matrix(1.7920896,0,0,1.3702676,-67.930315,11.146482)"
       style="fill:#b3b3b3">
      <path
         sodipodi:nodetypes="ccccc"
         id="path2455"
         d="M 48.450717,-3.6432777 L 47.721832,37.356747 C 49.361823,38.977863 51.001814,39.338767 52.641805,37.179258 L 51.91292,-3.6432777 C 50.334108,-2.0568592 49.619514,-2.9315479 48.450717,-3.6432777 z"
         style="fill:#b3b3b3;fill-rule:evenodd;stroke:#000000;stroke-width:0.63119805px;stroke-linecap:butt;stroke-linejoin:miter;stroke-opacity:1" />
      <path
         id="path2457"
         d="M 48.450717,-3.820767 L 49.908486,-2.578342 L 51.001814,-2.9333206 L 52.277362,-4.1757456 L 51.001814,-5.2406812 L 49.726265,-5.5956598 L 48.450717,-3.820767 z"
         style="fill:#b3b3b3;fill-rule:evenodd;stroke:#000000;stroke-width:0.63119805px;stroke-linecap:butt;stroke-linejoin:miter;stroke-opacity:1" />
    </g>
    <path
       style="fill:none;fill-rule:evenodd;stroke:#000000;stroke-width:1px;stroke-linecap:butt;stroke-linejoin:miter;stroke-opacity:1"
       d="M 48.545455,13.818182 L 55.272727,5.8181818 L 61.272727,14.181818"
       id="path2413" />
    <path
       style="fill:none;fill-rule:evenodd;stroke:#000000;stroke-width:1px;stroke-linecap:butt;stroke-linejoin:miter;stroke-opacity:1"
       d="M 46,19.818182 L 52.545455,14.181818 L 58.181818,20.181818"
       id="path2415" />
    <path
       style="fill:none;fill-rule:evenodd;stroke:#000000;stroke-width:1px;stroke-linecap:butt;stroke-linejoin:miter;stroke-opacity:1"
       d="M 42.909091,9.4545455 L 48.727273,4.5454545 L 52.363636,8.3636364"
       id="path2417" />
    <path
       style="fill:none;fill-rule:evenodd;stroke:#000000;stroke-width:1px;stroke-linecap:butt;stroke-linejoin:miter;stroke-opacity:1"
       d="M 6.3636364,28.181818 L 8,25.636364 L 8,22.181818 L 7.0909091,20 C 8.9696968,21.362249 10.848484,21.722158 12.727272,20.181818 L 11.454545,22 L 11.636363,25.818182 L 12.90909,28.181818 C 10.016314,31.025652 8.3511553,28.959014 6.3636364,28.181818 z"
       id="path2421"
       sodipodi:nodetypes="ccccccccc" />
  </g>
</svg>
