<?xml version="1.0" encoding="UTF-8" standalone="no"?>
<!-- Created with Inkscape (http://www.inkscape.org/) -->

<svg
   xmlns:dc="http://purl.org/dc/elements/1.1/"
   xmlns:cc="http://creativecommons.org/ns#"
   xmlns:rdf="http://www.w3.org/1999/02/22-rdf-syntax-ns#"
   xmlns:svg="http://www.w3.org/2000/svg"
   xmlns="http://www.w3.org/2000/svg"
   xmlns:sodipodi="http://sodipodi.sourceforge.net/DTD/sodipodi-0.dtd"
   xmlns:inkscape="http://www.inkscape.org/namespaces/inkscape"
   width="64px"
   height="64px"
   id="svg2390"
   sodipodi:version="0.32"
   inkscape:version="0.48.3.1 r9886"
   sodipodi:docname="lift.svg"
   inkscape:output_extension="org.inkscape.output.svg.inkscape"
   version="1.1">
  <defs
     id="defs2392">
    <inkscape:perspective
       sodipodi:type="inkscape:persp3d"
       inkscape:vp_x="0 : 32 : 1"
       inkscape:vp_y="0 : 1000 : 0"
       inkscape:vp_z="64 : 32 : 1"
       inkscape:persp3d-origin="32 : 21.333333 : 1"
       id="perspective2398" />
  </defs>
  <sodipodi:namedview
     id="base"
     pagecolor="#ffffff"
     bordercolor="#666666"
     borderopacity="1.0"
     inkscape:pageopacity="0.0"
     inkscape:pageshadow="2"
     inkscape:zoom="5.5"
     inkscape:cx="32.572205"
     inkscape:cy="31.998609"
     inkscape:current-layer="layer1"
     showgrid="true"
     inkscape:document-units="px"
     inkscape:grid-bbox="true"
     inkscape:window-width="1206"
     inkscape:window-height="683"
     inkscape:window-x="221"
     inkscape:window-y="248"
     inkscape:window-maximized="0" />
  <metadata
     id="metadata2395">
    <rdf:RDF>
      <cc:Work
         rdf:about="">
        <dc:format>image/svg+xml</dc:format>
        <dc:type
           rdf:resource="http://purl.org/dc/dcmitype/StillImage" />
        <dc:title></dc:title>
      </cc:Work>
    </rdf:RDF>
  </metadata>
  <g
     id="layer1"
     inkscape:label="Layer 1"
     inkscape:groupmode="layer">
    <path
       style="fill:#800000;stroke:#000000;stroke-width:1px;stroke-linecap:butt;stroke-linejoin:miter;stroke-opacity:1"
       d="M 3.6363638,55.636363 57.999999,56 58,46.909091 3.6363637,46.363636 z"
       id="path3024"
       inkscape:connector-curvature="0"
       sodipodi:nodetypes="ccccc" />
    <path
       style="fill:#552200;stroke:#000000;stroke-width:0.98793255999999996px;stroke-linecap:butt;stroke-linejoin:miter;stroke-opacity:1"
       d="M 8.7272727,56.535359 11.636363,58.664836 16,59.374663 20.545454,59.01975 25.272727,59.197206 30,59.01975 l 5.818181,0.177456 4.545455,-0.53237 5.818182,0.887283 4.727272,-0.532369 3.636364,-1.774565 1.272727,-3.54913 -2,-4.258956 -3.636363,-0.53237 -5.636364,0.354913 -4.909091,-0.177455 -4.181818,-10e-7 -4.363636,0.354913 -4.727273,0 -4.545455,-0.354912 -4.90909,0.177456 -4.909092,-0.53237 -3.8181808,1.952021 -0.7272727,3.726587 z"
       id="path3022"
       inkscape:connector-curvature="0"
       sodipodi:nodetypes="ccccccccccccccccccccccccc" />
    <path
       sodipodi:type="arc"
       style="fill:#28170b;fill-opacity:1"
       id="path3050"
       sodipodi:cx="51.363636"
       sodipodi:cy="56.090908"
       sodipodi:rx="4.4545455"
       sodipodi:ry="4.4545455"
       d="m 55.818182,56.090908 a 4.4545455,4.4545455 0 1 1 -8.909091,0 4.4545455,4.4545455 0 1 1 8.909091,0 z"
       transform="translate(-1.0909091,-2.1818182)" />
    <path
       sodipodi:type="arc"
       style="fill:#28170b;fill-opacity:1"
       id="path3063"
       sodipodi:cx="12.727273"
       sodipodi:cy="54.727272"
       sodipodi:rx="4.181818"
       sodipodi:ry="4.181818"
       d="m 16.909091,54.727272 a 4.181818,4.181818 0 1 1 -8.363636,0 4.181818,4.181818 0 1 1 8.363636,0 z"
       transform="translate(-0.18181818,-1.0909091)" />
    <path
       style="fill:#552200;stroke:#000000;stroke-width:1px;stroke-linecap:butt;stroke-linejoin:miter;stroke-opacity:1"
       d="M 11.454545,51.818182 51.818182,51.454545 51.636364,55.818182 11.272727,56 z"
       id="path3103"
       inkscape:connector-curvature="0" />
  </g>
</svg>
