<?xml version="1.0" encoding="UTF-8" standalone="no"?>
<!-- Created with Inkscape (http://www.inkscape.org/) -->
<svg
   xmlns:dc="http://purl.org/dc/elements/1.1/"
   xmlns:cc="http://creativecommons.org/ns#"
   xmlns:rdf="http://www.w3.org/1999/02/22-rdf-syntax-ns#"
   xmlns:svg="http://www.w3.org/2000/svg"
   xmlns="http://www.w3.org/2000/svg"
   xmlns:sodipodi="http://sodipodi.sourceforge.net/DTD/sodipodi-0.dtd"
   xmlns:inkscape="http://www.inkscape.org/namespaces/inkscape"
   width="64px"
   height="64px"
   id="svg3162"
   sodipodi:version="0.32"
   inkscape:version="0.46"
   sodipodi:docname="recycling.svg"
   inkscape:output_extension="org.inkscape.output.svg.inkscape">
  <defs
     id="defs3164">
    <inkscape:perspective
       sodipodi:type="inkscape:persp3d"
       inkscape:vp_x="0 : 32 : 1"
       inkscape:vp_y="0 : 1000 : 0"
       inkscape:vp_z="64 : 32 : 1"
       inkscape:persp3d-origin="32 : 21.333333 : 1"
       id="perspective3170" />
  </defs>
  <sodipodi:namedview
     id="base"
     pagecolor="#ffffff"
     bordercolor="#666666"
     borderopacity="1.0"
     inkscape:pageopacity="0.0"
     inkscape:pageshadow="2"
     inkscape:zoom="5.5"
     inkscape:cx="36.610094"
     inkscape:cy="32.883817"
     inkscape:current-layer="layer1"
     showgrid="true"
     inkscape:document-units="px"
     inkscape:grid-bbox="true"
     inkscape:window-width="789"
     inkscape:window-height="607"
     inkscape:window-x="459"
     inkscape:window-y="410" />
  <metadata
     id="metadata3167">
    <rdf:RDF>
      <cc:Work
         rdf:about="">
        <dc:format>image/svg+xml</dc:format>
        <dc:type
           rdf:resource="http://purl.org/dc/dcmitype/StillImage" />
      </cc:Work>
    </rdf:RDF>
  </metadata>
  <g
     id="layer1"
     inkscape:label="Layer 1"
     inkscape:groupmode="layer">
    <path
       style="fill:#7c916f;fill-rule:evenodd;stroke:#000000;stroke-width:0.99999994000000003px;stroke-linecap:butt;stroke-linejoin:miter;stroke-opacity:1"
       d="M 1.3797567,48.603673 L 34.72565,61.148912 L 34.740924,43.298467 L 1.2582464,32.203012 L 1.3797567,48.603673 z"
       id="path3172"
       sodipodi:nodetypes="ccccc" />
    <path
       style="fill:#484537;fill-rule:evenodd;stroke:#000000;stroke-width:0.99999994px;stroke-linecap:butt;stroke-linejoin:miter;stroke-opacity:1"
       d="M 4.7723231,49.93865 L 4.6049861,37.222533 L 15.983903,41.238149 L 15.983903,54.121585 L 4.7723231,49.93865 z"
       id="path3174"
       sodipodi:nodetypes="ccccc" />
    <path
       style="fill:#484537;fill-rule:evenodd;stroke:#000000;stroke-width:0.99999994px;stroke-linecap:butt;stroke-linejoin:miter;stroke-opacity:1"
       d="M 19.665317,55.376463 L 19.49798,42.660346 L 31.044233,46.508645 L 30.876896,59.559397 L 19.665317,55.376463 z"
       id="path3178"
       sodipodi:nodetypes="ccccc" />
    <path
       style="fill:#f4eed7;fill-rule:evenodd;stroke:#000000;stroke-width:0.99999994px;stroke-linecap:butt;stroke-linejoin:miter;stroke-opacity:1"
       d="M 34.725647,43.413273 L 57.38211,25.568322 L 24.867244,15.419966 L 1.0909091,32.035694 L 34.725647,43.413273 z"
       id="path3184"
       sodipodi:nodetypes="ccccc" />
    <path
       style="fill:#918a6f;fill-rule:evenodd;stroke:#000000;stroke-width:0.99999994px;stroke-linecap:butt;stroke-linejoin:miter;stroke-opacity:1"
       d="M 129.34512,37.377578 L 129.51246,47.096484 L 117.82783,43.262686 L 117.76991,33.485776 L 129.34512,37.377578 z"
       id="path3182"
       sodipodi:nodetypes="ccccc" />
    <path
       style="fill:#918a6f;fill-rule:evenodd;stroke:#000000;stroke-width:1px;stroke-linecap:butt;stroke-linejoin:miter;stroke-opacity:1"
       d="M 129.45455,46.90909 L 140.18182,38.545453 L 140.18182,28.727272 L 129.45455,37.090908 L 129.45455,46.90909 z"
       id="path2484"
       sodipodi:nodetypes="ccccc" />
    <path
       style="fill:#918a6f;fill-rule:evenodd;stroke:#000000;stroke-width:0.99999994px;stroke-linecap:butt;stroke-linejoin:miter;stroke-opacity:1"
       d="M 117.75543,33.485777 L 140.5213,40.862241 L 152.54704,31.849413 L 129.27111,24.90909 L 117.75543,33.485777 z"
       id="path3180"
       sodipodi:nodetypes="ccccc" />
    <path
       style="fill:#7c916f;fill-rule:evenodd;stroke:#000000;stroke-width:1px;stroke-linecap:butt;stroke-linejoin:miter;stroke-opacity:1"
       d="M 34.909091,43.272727 L 44.545454,28.909091 L 10.727273,18.545455 L 1.0909091,31.454545 L 34.909091,43.272727 z"
       id="path2525"
       sodipodi:nodetypes="ccccc" />
    <path
       style="fill:#9dac93;fill-rule:evenodd;stroke:#000000;stroke-width:1px;stroke-linecap:butt;stroke-linejoin:miter;stroke-opacity:1"
       d="M 10.909091,18.363637 L 25.090909,9.2727271 L 57.636363,18.181818 L 44.363636,28.909091 L 10.909091,18.363637 z"
       id="path2527"
       sodipodi:nodetypes="ccccc" />
    <path
       style="fill:#9dac93;fill-rule:evenodd;stroke:#000000;stroke-width:1px;stroke-linecap:butt;stroke-linejoin:miter;stroke-opacity:1"
       d="M 34.909091,43.454545 L 34.723064,61.193616 L 57.454546,43.090909 L 57.818182,18.363636 L 44.181818,28.727273 L 34.909091,43.454545 z"
       id="path2529"
       sodipodi:nodetypes="cccccc" />
    <path
       style="fill:#9dac93;fill-rule:evenodd;stroke:#000000;stroke-width:1px;stroke-linecap:butt;stroke-linejoin:miter;stroke-opacity:1"
       d="M 51.272728,49.272727 L 51.454546,62.363636 L 62.545455,52.909091 L 62.909091,38.909091 L 51.272728,49.272727 z"
       id="path2480"
       sodipodi:nodetypes="ccccc" />
    <path
       style="fill:#7c916f;fill-rule:evenodd;stroke:#000000;stroke-width:1px;stroke-linecap:butt;stroke-linejoin:miter;stroke-opacity:1"
       d="M 51.454546,62.727272 L 38.909091,57.636363 L 39.090909,39.818181 L 51.454546,48.545454 L 51.454546,62.727272 z"
       id="path2482"
       sodipodi:nodetypes="ccccc" />
    <path
       style="fill:#9dac93;fill-rule:evenodd;stroke:#000000;stroke-width:1px;stroke-linecap:butt;stroke-linejoin:miter;stroke-opacity:1"
       d="M 51.439665,29.636361 L 63.244144,38.870723 L 51.379844,48.909087 L 38.909091,39.674725 L 51.439665,29.636361 z"
       id="path3192"
       sodipodi:nodetypes="ccccc" />
    <path
       style="fill:#008080;fill-rule:evenodd;stroke:#000000;stroke-width:1px;stroke-linecap:butt;stroke-linejoin:miter;stroke-opacity:1"
       d="M 38.727273,29.818182 L 32.363637,39.454546 L 26.909091,37.454546 L 33.272728,28 L 38.727273,29.818182 z"
       id="path2531"
       sodipodi:nodetypes="ccccc" />
    <path
       style="fill:#008080;fill-rule:evenodd;stroke:#000000;stroke-width:1px;stroke-linecap:butt;stroke-linejoin:miter;stroke-opacity:1"
       d="M 28.181819,26.454545 L 22.181819,36.090909 L 16.727273,34.090909 L 22.727274,24.636363 L 28.181819,26.454545 z"
       id="path2533"
       sodipodi:nodetypes="ccccc" />
    <path
       style="fill:#008080;fill-rule:evenodd;stroke:#000000;stroke-width:1px;stroke-linecap:butt;stroke-linejoin:miter;stroke-opacity:1"
       d="M 18.727273,23.181817 L 12.181819,32.818181 L 6.7272729,30.818181 L 13.09091,21.363635 L 18.727273,23.181817 z"
       id="path2535"
       sodipodi:nodetypes="ccccc" />
    <path
       style="fill:#217821;fill-rule:evenodd;stroke:#000000;stroke-width:1px;stroke-linecap:butt;stroke-linejoin:miter;stroke-opacity:1"
       d="M 85.454546,27.272726 L 91.636364,27.272726 L 95.454546,22.545454 L 92.909092,18.90909 L 95.454546,17.272726 L 88.727273,16.545454 L 87.272728,21.999999 L 89.636364,20.727272 L 91.636364,23.636363 L 85.454546,23.636363 L 85.454546,27.272726 z"
       id="path3309" />
    <path
       style="fill:#217821;fill-rule:evenodd;stroke:#000000;stroke-width:1px;stroke-linecap:butt;stroke-linejoin:miter;stroke-opacity:1"
       d="M 91.041455,13.368188 L 87.767098,8.1247686 L 81.735027,7.3901056 L 79.998926,11.475252 L 77.262697,10.182941 L 80.209097,16.274233 L 85.606081,14.61884 L 83.274593,13.288135 L 84.682733,10.050861 L 87.957092,15.294281 L 91.041455,13.368188 z"
       id="path3311" />
    <path
       style="fill:#217821;fill-rule:evenodd;stroke:#000000;stroke-width:1px;stroke-linecap:butt;stroke-linejoin:miter;stroke-opacity:1"
       d="M 76.715916,15.945727 L 73.256956,21.069248 L 75.038526,26.878863 L 79.47664,26.803861 L 79.408589,29.829153 L 83.775518,24.660492 L 80.068637,20.402935 L 79.800936,23.074066 L 76.270792,23.10393 L 79.729752,17.980409 L 76.715916,15.945727 z"
       id="path3313" />
    <path
       style="fill:#217821;fill-rule:evenodd;stroke:none;stroke-width:1px;stroke-linecap:butt;stroke-linejoin:miter;stroke-opacity:1"
       d="M 25.532695,55.4966 L 28.018186,56.675018 L 29.553343,55.282737 L 28.529904,53.166638 L 29.553343,52.917979 L 26.848544,51.309411 L 26.263722,53.478437 L 27.214056,53.358204 L 28.018186,55.044151 L 25.532695,53.865734 L 25.532695,55.4966 z"
       id="path3327" />
    <path
       style="fill:#217821;fill-rule:evenodd;stroke:none;stroke-width:1px;stroke-linecap:butt;stroke-linejoin:miter;stroke-opacity:1"
       d="M 27.778994,50.325588 L 26.462491,47.349797 L 24.037208,45.870438 L 23.339184,47.371632 L 22.239042,46.270448 L 23.423686,49.563984 L 25.593622,49.850366 L 24.656212,48.809117 L 25.222377,47.625665 L 26.53888,50.601457 L 27.778994,50.325588 z"
       id="path3329" />
    <path
       style="fill:#217821;fill-rule:evenodd;stroke:none;stroke-width:1px;stroke-linecap:butt;stroke-linejoin:miter;stroke-opacity:1"
       d="M 22.019201,48.75076 L 20.628476,50.389231 L 21.344782,53.33439 L 23.129191,54.146774 L 23.10183,55.49061 L 24.857618,54.004977 L 23.367212,51.388884 L 23.259579,52.535823 L 21.840233,51.876278 L 23.230958,50.237808 L 22.019201,48.75076 z"
       id="path3331" />
    <path
       style="fill:#217821;fill-rule:evenodd;stroke:none;stroke-width:1px;stroke-linecap:butt;stroke-linejoin:miter;stroke-opacity:1"
       d="M 10.623603,49.860236 L 13.109094,51.038654 L 14.644251,49.646373 L 13.620812,47.530274 L 14.644251,47.281615 L 11.939452,45.673047 L 11.35463,47.842073 L 12.304964,47.72184 L 13.109094,49.407787 L 10.623603,48.22937 L 10.623603,49.860236 z"
       id="path3333" />
    <path
       style="fill:#217821;fill-rule:evenodd;stroke:none;stroke-width:1px;stroke-linecap:butt;stroke-linejoin:miter;stroke-opacity:1"
       d="M 12.869902,44.689224 L 11.553399,41.713433 L 9.1281163,40.234074 L 8.4300923,41.735268 L 7.3299503,40.634084 L 8.5145943,43.92762 L 10.68453,44.214002 L 9.7471213,43.172753 L 10.313285,41.989301 L 11.629788,44.965093 L 12.869902,44.689224 z"
       id="path3335" />
    <path
       style="fill:#217821;fill-rule:evenodd;stroke:none;stroke-width:1px;stroke-linecap:butt;stroke-linejoin:miter;stroke-opacity:1"
       d="M 7.1101093,43.114396 L 5.7193843,44.752867 L 6.4356903,47.698026 L 8.2200993,48.51041 L 8.1927383,49.854246 L 9.9485263,48.368613 L 8.4581203,45.75252 L 8.3504873,46.899459 L 6.9311413,46.239914 L 8.3218663,44.601444 L 7.1101093,43.114396 z"
       id="path3337" />
    <path
       style="fill:none;fill-rule:evenodd;stroke:#000000;stroke-width:1px;stroke-linecap:butt;stroke-linejoin:miter;stroke-opacity:1"
       d="M 42,58.909091 L 42,49.818182 L 47.090909,52.181818 L 47.090909,61.090909 L 42,58.909091 z"
       id="path3343"
       sodipodi:nodetypes="ccccc" />
  </g>
</svg>
