<?xml version="1.0" encoding="UTF-8" standalone="no"?>
<!-- Created with Inkscape (http://www.inkscape.org/) -->
<svg
   xmlns:dc="http://purl.org/dc/elements/1.1/"
   xmlns:cc="http://creativecommons.org/ns#"
   xmlns:rdf="http://www.w3.org/1999/02/22-rdf-syntax-ns#"
   xmlns:svg="http://www.w3.org/2000/svg"
   xmlns="http://www.w3.org/2000/svg"
   xmlns:sodipodi="http://sodipodi.sourceforge.net/DTD/sodipodi-0.dtd"
   xmlns:inkscape="http://www.inkscape.org/namespaces/inkscape"
   width="64px"
   height="64px"
   id="svg3162"
   sodipodi:version="0.32"
   inkscape:version="0.46"
   sodipodi:docname="recycling2.svg"
   inkscape:output_extension="org.inkscape.output.svg.inkscape">
  <defs
     id="defs3164">
    <inkscape:perspective
       sodipodi:type="inkscape:persp3d"
       inkscape:vp_x="0 : 32 : 1"
       inkscape:vp_y="0 : 1000 : 0"
       inkscape:vp_z="64 : 32 : 1"
       inkscape:persp3d-origin="32 : 21.333333 : 1"
       id="perspective3170" />
  </defs>
  <sodipodi:namedview
     id="base"
     pagecolor="#ffffff"
     bordercolor="#666666"
     borderopacity="1.0"
     inkscape:pageopacity="0.0"
     inkscape:pageshadow="2"
     inkscape:zoom="5.5"
     inkscape:cx="36.610094"
     inkscape:cy="33.34713"
     inkscape:current-layer="layer1"
     showgrid="true"
     inkscape:document-units="px"
     inkscape:grid-bbox="true"
     inkscape:window-width="789"
     inkscape:window-height="607"
     inkscape:window-x="459"
     inkscape:window-y="410" />
  <metadata
     id="metadata3167">
    <rdf:RDF>
      <cc:Work
         rdf:about="">
        <dc:format>image/svg+xml</dc:format>
        <dc:type
           rdf:resource="http://purl.org/dc/dcmitype/StillImage" />
      </cc:Work>
    </rdf:RDF>
  </metadata>
  <g
     id="layer1"
     inkscape:label="Layer 1"
     inkscape:groupmode="layer">
    <path
       style="fill:#6f8a91;fill-rule:evenodd;stroke:#000000;stroke-width:1px;stroke-linecap:butt;stroke-linejoin:miter;stroke-opacity:1"
       d="M 1.5558716,38.373081 L 47.719295,55.694368 L 47.733852,38.688569 L 1.4400645,22.748466 L 1.5558716,38.373081 z"
       id="path3172"
       sodipodi:nodetypes="ccccc" />
    <path
       style="fill:#93a7ac;fill-rule:evenodd;stroke:#000000;stroke-width:1px;stroke-linecap:butt;stroke-linejoin:miter;stroke-opacity:1"
       d="M 4.8610723,39.449049 L 4.7068253,27.735767 L 15.195627,31.434699 L 15.195627,43.302104 L 4.8610723,39.449049 z"
       id="path3174"
       sodipodi:nodetypes="ccccc" />
    <path
       style="fill:#918a6f;fill-rule:evenodd;stroke:#000000;stroke-width:0.99999994px;stroke-linecap:butt;stroke-linejoin:miter;stroke-opacity:1"
       d="M 129.34512,37.377578 L 129.51246,47.096484 L 117.82783,43.262686 L 117.76991,33.485776 L 129.34512,37.377578 z"
       id="path3182"
       sodipodi:nodetypes="ccccc" />
    <path
       style="fill:#918a6f;fill-rule:evenodd;stroke:#000000;stroke-width:1px;stroke-linecap:butt;stroke-linejoin:miter;stroke-opacity:1"
       d="M 129.45455,46.90909 L 140.18182,38.545453 L 140.18182,28.727272 L 129.45455,37.090908 L 129.45455,46.90909 z"
       id="path2484"
       sodipodi:nodetypes="ccccc" />
    <path
       style="fill:#918a6f;fill-rule:evenodd;stroke:#000000;stroke-width:0.99999994px;stroke-linecap:butt;stroke-linejoin:miter;stroke-opacity:1"
       d="M 117.75543,33.485777 L 140.5213,40.862241 L 152.54704,31.849413 L 129.27111,24.90909 L 117.75543,33.485777 z"
       id="path3180"
       sodipodi:nodetypes="ccccc" />
    <path
       style="fill:#217821;fill-rule:evenodd;stroke:none;stroke-width:1px;stroke-linecap:butt;stroke-linejoin:miter;stroke-opacity:1"
       d="M 85.454546,27.272726 L 93.272728,27.272726 L 95.818182,23.272727 L 92.909092,18.90909 L 95.454546,17.272726 L 88.727273,16.545454 L 87.272728,21.999999 L 89.636364,20.727272 L 91.636364,23.636363 L 85.454546,23.636363 L 85.454546,27.272726 z"
       id="path3309"
       sodipodi:nodetypes="ccccccccccc" />
    <path
       style="fill:none;fill-rule:evenodd;stroke:#000000;stroke-width:1px;stroke-linecap:butt;stroke-linejoin:miter;stroke-opacity:1"
       d="M 4.9090909,32.181817 L 15.272727,35.636363"
       id="path3373" />
    <path
       style="fill:none;fill-rule:evenodd;stroke:#000000;stroke-width:1px;stroke-linecap:butt;stroke-linejoin:miter;stroke-opacity:1"
       d="M 4.7272727,36.181817 L 15.090909,39.818181"
       id="path3375" />
    <path
       style="fill:#93a7ac;fill-rule:evenodd;stroke:#000000;stroke-width:1px;stroke-linecap:butt;stroke-linejoin:miter;stroke-opacity:1"
       d="M 18.871296,44.657385 L 18.717049,32.944103 L 29.20585,36.643035 L 29.20585,48.51044 L 18.871296,44.657385 z"
       id="path3377"
       sodipodi:nodetypes="ccccc" />
    <path
       style="fill:none;fill-rule:evenodd;stroke:#000000;stroke-width:1px;stroke-linecap:butt;stroke-linejoin:miter;stroke-opacity:1"
       d="M 18.919314,37.390153 L 29.28295,40.844699"
       id="path3379" />
    <path
       style="fill:none;fill-rule:evenodd;stroke:#000000;stroke-width:1px;stroke-linecap:butt;stroke-linejoin:miter;stroke-opacity:1"
       d="M 18.737496,41.390153 L 29.101132,45.026517"
       id="path3381" />
    <path
       style="fill:#93a7ac;fill-rule:evenodd;stroke:#000000;stroke-width:1px;stroke-linecap:butt;stroke-linejoin:miter;stroke-opacity:1"
       d="M 33.234932,50.111931 L 33.080685,38.398649 L 43.569487,42.097581 L 43.569487,53.964986 L 33.234932,50.111931 z"
       id="path3383"
       sodipodi:nodetypes="ccccc" />
    <path
       style="fill:none;fill-rule:evenodd;stroke:#000000;stroke-width:1px;stroke-linecap:butt;stroke-linejoin:miter;stroke-opacity:1"
       d="M 33.282951,42.844699 L 43.646587,46.299245"
       id="path3385" />
    <path
       style="fill:none;fill-rule:evenodd;stroke:#000000;stroke-width:1px;stroke-linecap:butt;stroke-linejoin:miter;stroke-opacity:1"
       d="M 33.101133,46.844699 L 43.464769,50.481063"
       id="path3387" />
    <path
       style="fill:#217821;fill-rule:evenodd;stroke:none;stroke-width:1px;stroke-linecap:butt;stroke-linejoin:miter;stroke-opacity:1"
       d="M 76.857765,16.190144 L 72.22645,22.652742 L 74.585342,27.064014 L 79.829292,26.992491 L 79.820134,30.018534 L 84.085641,24.765861 L 80.296599,20.581255 L 80.080936,23.257091 L 76.552042,23.355655 L 79.91063,18.165784 L 76.857765,16.190144 z"
       id="path3389"
       sodipodi:nodetypes="ccccccccccc" />
    <path
       style="fill:#217821;fill-rule:evenodd;stroke:none;stroke-width:1px;stroke-linecap:butt;stroke-linejoin:miter;stroke-opacity:1"
       d="M 90.329392,14.404401 L 86.897236,7.3912147 L 82.197969,6.835721 L 79.547108,11.360879 L 76.961928,9.7880275 L 79.251519,16.155358 L 84.792644,15.076611 L 82.613999,13.508137 L 84.354721,10.436867 L 87.059604,15.995508 L 90.329392,14.404401 z"
       id="path3391"
       sodipodi:nodetypes="ccccccccccc" />
    <path
       style="fill:#6f8a91;fill-rule:evenodd;stroke:#000000;stroke-width:1px;stroke-linecap:butt;stroke-linejoin:miter;stroke-opacity:1"
       d="M 1.4545454,22.727272 L 1.4545454,7.0909094 L 47.818182,22.181817 L 47.818182,38.545454 L 1.4545454,22.727272 z"
       id="path3413"
       sodipodi:nodetypes="ccccc" />
    <path
       style="fill:#93a7ac;fill-rule:evenodd;stroke:#000000;stroke-width:1px;stroke-linecap:butt;stroke-linejoin:miter;stroke-opacity:1"
       d="M 48.181819,55.818181 L 62.545455,48.545454 L 62.545455,32.363636 L 48.181819,38.727272 L 48.181819,55.818181 z"
       id="path3415" />
    <path
       style="fill:#93a7ac;fill-rule:evenodd;stroke:#000000;stroke-width:1px;stroke-linecap:butt;stroke-linejoin:miter;stroke-opacity:1"
       d="M 48.272728,38.818181 L 62.636364,32.272727 L 62.636364,16.090909 L 48.09091,22.090908 L 48.272728,38.818181 z"
       id="path3417"
       sodipodi:nodetypes="ccccc" />
    <path
       style="fill:#93a7ac;fill-rule:evenodd;stroke:#000000;stroke-width:1px;stroke-linecap:butt;stroke-linejoin:miter;stroke-opacity:1"
       d="M 48.363637,22.363635 L 62.909091,15.818181 L 16.727274,1.0909092 L 1.6363636,7.0909094 L 48.363637,22.363635 z"
       id="path3419"
       sodipodi:nodetypes="ccccc" />
    <path
       style="fill:#217821;fill-rule:evenodd;stroke:none;stroke-width:1px;stroke-linecap:butt;stroke-linejoin:miter;stroke-opacity:1"
       d="M 25.718675,28.990387 L 30.589824,30.567121 L 32.175776,28.588261 L 30.363257,25.28279 L 31.949215,24.776603 L 27.757759,22.966749 L 26.8515,26.071877 L 28.324172,25.755587 L 29.570279,27.971457 L 25.718675,26.724738 L 25.718675,28.990387 z"
       id="path3421"
       sodipodi:nodetypes="ccccccccccc" />
    <path
       style="fill:#217821;fill-rule:evenodd;stroke:none;stroke-width:1px;stroke-linecap:butt;stroke-linejoin:miter;stroke-opacity:1"
       d="M 20.362418,20.351587 L 17.476861,23.444113 L 18.946577,26.668301 L 22.21384,27.681313 L 22.208134,29.564853 L 24.865773,27.152402 L 22.504997,23.781013 L 22.370627,25.404708 L 20.171937,24.754429 L 22.264517,22.198204 L 20.362418,20.351587 z"
       id="path3423"
       sodipodi:nodetypes="ccccccccccc" />
    <path
       style="fill:#217821;fill-rule:evenodd;stroke:none;stroke-width:1px;stroke-linecap:butt;stroke-linejoin:miter;stroke-opacity:1"
       d="M 28.755966,21.955866 L 26.617548,16.894094 L 23.689652,15.600266 L 22.038024,17.885069 L 20.427318,16.383733 L 21.853856,20.812675 L 25.306274,21.258064 L 23.948862,19.841443 L 25.033425,18.278937 L 26.718712,22.287776 L 28.755966,21.955866 z"
       id="path3425"
       sodipodi:nodetypes="ccccccccccc" />
  </g>
</svg>
