<?xml version="1.0" encoding="UTF-8" standalone="no"?>
<!-- Created with Inkscape (http://www.inkscape.org/) -->
<svg
   xmlns:dc="http://purl.org/dc/elements/1.1/"
   xmlns:cc="http://creativecommons.org/ns#"
   xmlns:rdf="http://www.w3.org/1999/02/22-rdf-syntax-ns#"
   xmlns:svg="http://www.w3.org/2000/svg"
   xmlns="http://www.w3.org/2000/svg"
   xmlns:sodipodi="http://sodipodi.sourceforge.net/DTD/sodipodi-0.dtd"
   xmlns:inkscape="http://www.inkscape.org/namespaces/inkscape"
   width="64px"
   height="64px"
   id="svg3162"
   sodipodi:version="0.32"
   inkscape:version="0.46"
   sodipodi:docname="recycler.svg"
   inkscape:output_extension="org.inkscape.output.svg.inkscape">
  <defs
     id="defs3164">
    <inkscape:perspective
       sodipodi:type="inkscape:persp3d"
       inkscape:vp_x="0 : 32 : 1"
       inkscape:vp_y="0 : 1000 : 0"
       inkscape:vp_z="64 : 32 : 1"
       inkscape:persp3d-origin="32 : 21.333333 : 1"
       id="perspective3170" />
  </defs>
  <sodipodi:namedview
     id="base"
     pagecolor="#ffffff"
     bordercolor="#666666"
     borderopacity="1.0"
     inkscape:pageopacity="0.0"
     inkscape:pageshadow="2"
     inkscape:zoom="5.5"
     inkscape:cx="56.340386"
     inkscape:cy="33.104139"
     inkscape:current-layer="layer1"
     showgrid="true"
     inkscape:document-units="px"
     inkscape:grid-bbox="true"
     inkscape:window-width="789"
     inkscape:window-height="607"
     inkscape:window-x="344"
     inkscape:window-y="259" />
  <metadata
     id="metadata3167">
    <rdf:RDF>
      <cc:Work
         rdf:about="">
        <dc:format>image/svg+xml</dc:format>
        <dc:type
           rdf:resource="http://purl.org/dc/dcmitype/StillImage" />
      </cc:Work>
    </rdf:RDF>
  </metadata>
  <g
     id="layer1"
     inkscape:label="Layer 1"
     inkscape:groupmode="layer">
    <path
       style="fill:#6f8a91;fill-rule:evenodd;stroke:#000000;stroke-width:1px;stroke-linecap:butt;stroke-linejoin:miter;stroke-opacity:1"
       d="M 1.5558716,41.645808 L 47.719295,58.967095 L 47.733852,41.961296 L 1.4400645,26.021193 L 1.5558716,41.645808 z"
       id="path3172"
       sodipodi:nodetypes="ccccc" />
    <path
       style="fill:#93a7ac;fill-rule:evenodd;stroke:#000000;stroke-width:1px;stroke-linecap:butt;stroke-linejoin:miter;stroke-opacity:1"
       d="M 4.8610723,42.721776 L 4.7068253,31.008494 L 15.195627,34.707426 L 15.195627,46.574831 L 4.8610723,42.721776 z"
       id="path3174"
       sodipodi:nodetypes="ccccc" />
    <path
       style="fill:#217821;fill-rule:evenodd;stroke:none;stroke-width:1px;stroke-linecap:butt;stroke-linejoin:miter;stroke-opacity:1"
       d="M 105.63636,22.181817 L 113.45455,22.181817 L 116,18.181818 L 113.09091,13.818181 L 115.63636,12.181817 L 108.90909,11.454545 L 107.45455,16.90909 L 109.81818,15.636363 L 111.81818,18.545454 L 105.63636,18.545454 L 105.63636,22.181817 z"
       id="path3309"
       sodipodi:nodetypes="ccccccccccc" />
    <path
       style="fill:none;fill-rule:evenodd;stroke:#000000;stroke-width:1px;stroke-linecap:butt;stroke-linejoin:miter;stroke-opacity:1"
       d="M 4.9090909,35.454544 L 15.272727,38.90909"
       id="path3373" />
    <path
       style="fill:none;fill-rule:evenodd;stroke:#000000;stroke-width:1px;stroke-linecap:butt;stroke-linejoin:miter;stroke-opacity:1"
       d="M 4.7272727,39.454544 L 15.090909,43.090908"
       id="path3375" />
    <path
       style="fill:#93a7ac;fill-rule:evenodd;stroke:#000000;stroke-width:1px;stroke-linecap:butt;stroke-linejoin:miter;stroke-opacity:1"
       d="M 18.871296,47.930112 L 18.717049,36.21683 L 29.20585,39.915762 L 29.20585,51.783167 L 18.871296,47.930112 z"
       id="path3377"
       sodipodi:nodetypes="ccccc" />
    <path
       style="fill:none;fill-rule:evenodd;stroke:#000000;stroke-width:1px;stroke-linecap:butt;stroke-linejoin:miter;stroke-opacity:1"
       d="M 18.919314,40.66288 L 29.28295,44.117426"
       id="path3379" />
    <path
       style="fill:none;fill-rule:evenodd;stroke:#000000;stroke-width:1px;stroke-linecap:butt;stroke-linejoin:miter;stroke-opacity:1"
       d="M 18.737496,44.66288 L 29.101132,48.299244"
       id="path3381" />
    <path
       style="fill:#93a7ac;fill-rule:evenodd;stroke:#000000;stroke-width:1px;stroke-linecap:butt;stroke-linejoin:miter;stroke-opacity:1"
       d="M 33.234932,53.384658 L 33.080685,41.671376 L 43.569487,45.370308 L 43.569487,57.237713 L 33.234932,53.384658 z"
       id="path3383"
       sodipodi:nodetypes="ccccc" />
    <path
       style="fill:none;fill-rule:evenodd;stroke:#000000;stroke-width:1px;stroke-linecap:butt;stroke-linejoin:miter;stroke-opacity:1"
       d="M 33.282951,46.117426 L 43.646587,49.571972"
       id="path3385" />
    <path
       style="fill:none;fill-rule:evenodd;stroke:#000000;stroke-width:1px;stroke-linecap:butt;stroke-linejoin:miter;stroke-opacity:1"
       d="M 33.101133,50.117426 L 43.464769,53.75379"
       id="path3387" />
    <path
       style="fill:#217821;fill-rule:evenodd;stroke:none;stroke-width:1px;stroke-linecap:butt;stroke-linejoin:miter;stroke-opacity:1"
       d="M 97.039583,11.099235 L 92.408268,17.561833 L 94.76716,21.973105 L 100.01111,21.901582 L 100.00195,24.927625 L 104.26746,19.674952 L 100.47842,15.490346 L 100.26275,18.166182 L 96.73386,18.264746 L 100.09245,13.074875 L 97.039583,11.099235 z"
       id="path3389"
       sodipodi:nodetypes="ccccccccccc" />
    <path
       style="fill:#217821;fill-rule:evenodd;stroke:none;stroke-width:1px;stroke-linecap:butt;stroke-linejoin:miter;stroke-opacity:1"
       d="M 110.51121,9.3134919 L 107.07905,2.3003056 L 102.37979,1.7448119 L 99.728926,6.2699699 L 97.143746,4.6971184 L 99.433337,11.064449 L 104.97446,9.9857019 L 102.79582,8.4172279 L 104.53654,5.3459579 L 107.24142,10.904599 L 110.51121,9.3134919 z"
       id="path3391"
       sodipodi:nodetypes="ccccccccccc" />
    <path
       style="fill:#6f8a91;fill-rule:evenodd;stroke:#000000;stroke-width:1px;stroke-linecap:butt;stroke-linejoin:miter;stroke-opacity:1"
       d="M 1.4545454,25.999999 L 1.4545454,10.363637 L 47.818182,25.454544 L 47.818182,41.818181 L 1.4545454,25.999999 z"
       id="path3413"
       sodipodi:nodetypes="ccccc" />
    <path
       style="fill:#93a7ac;fill-rule:evenodd;stroke:#000000;stroke-width:1px;stroke-linecap:butt;stroke-linejoin:miter;stroke-opacity:1"
       d="M 48.181819,59.090908 L 62.545455,51.818181 L 62.545455,35.636363 L 48.181819,41.999999 L 48.181819,59.090908 z"
       id="path3415" />
    <path
       style="fill:#93a7ac;fill-rule:evenodd;stroke:#000000;stroke-width:1px;stroke-linecap:butt;stroke-linejoin:miter;stroke-opacity:1"
       d="M 48.272728,42.090908 L 62.636364,35.545454 L 62.636364,19.363636 L 48.09091,25.363635 L 48.272728,42.090908 z"
       id="path3417"
       sodipodi:nodetypes="ccccc" />
    <path
       style="fill:#93a7ac;fill-rule:evenodd;stroke:#000000;stroke-width:1px;stroke-linecap:butt;stroke-linejoin:miter;stroke-opacity:1"
       d="M 48.363637,25.636362 L 62.909091,19.090908 L 16.727274,4.3636365 L 1.6363636,10.363637 L 48.363637,25.636362 z"
       id="path3419"
       sodipodi:nodetypes="ccccc" />
    <path
       style="fill:#217821;fill-rule:evenodd;stroke:none;stroke-width:1px;stroke-linecap:butt;stroke-linejoin:miter;stroke-opacity:1"
       d="M 25.718675,32.263114 L 30.589824,33.839848 L 32.175776,31.860988 L 30.363257,28.555517 L 31.949215,28.04933 L 27.757759,26.239476 L 26.8515,29.344604 L 28.324172,29.028314 L 29.570279,31.244184 L 25.718675,29.997465 L 25.718675,32.263114 z"
       id="path3421"
       sodipodi:nodetypes="ccccccccccc" />
    <path
       style="fill:#217821;fill-rule:evenodd;stroke:none;stroke-width:1px;stroke-linecap:butt;stroke-linejoin:miter;stroke-opacity:1"
       d="M 20.362418,23.624314 L 17.476861,26.71684 L 18.946577,29.941028 L 22.21384,30.95404 L 22.208134,32.83758 L 24.865773,30.425129 L 22.504997,27.05374 L 22.370627,28.677435 L 20.171937,28.027156 L 22.264517,25.470931 L 20.362418,23.624314 z"
       id="path3423"
       sodipodi:nodetypes="ccccccccccc" />
    <path
       style="fill:#217821;fill-rule:evenodd;stroke:none;stroke-width:1px;stroke-linecap:butt;stroke-linejoin:miter;stroke-opacity:1"
       d="M 28.755966,25.228593 L 26.617548,20.166821 L 23.689652,18.872993 L 22.038024,21.157796 L 20.427318,19.65646 L 21.853856,24.085402 L 25.306274,24.530791 L 23.948862,23.11417 L 25.033425,21.551664 L 26.718712,25.560503 L 28.755966,25.228593 z"
       id="path3425"
       sodipodi:nodetypes="ccccccccccc" />
    <path
       sodipodi:type="arc"
       style="fill:#93a7ac;fill-opacity:1;fill-rule:evenodd;stroke:none;stroke-width:0.50000000000000000;stroke-linejoin:miter;stroke-miterlimit:4;stroke-dasharray:none;stroke-dashoffset:0;stroke-opacity:1"
       id="path3427"
       sodipodi:cx="57.636364"
       sodipodi:cy="60.909092"
       sodipodi:rx="2.5454545"
       sodipodi:ry="1.0909091"
       d="M 60.181818,60.909092 A 2.5454545,1.0909091 0 1 1 55.090909,60.909092 A 2.5454545,1.0909091 0 1 1 60.181818,60.909092 z"
       transform="translate(24.363636,0.1818182)" />
    <path
       style="fill:#93a7ac;fill-rule:evenodd;stroke:none;stroke-width:0.50000000000000000;stroke-linecap:butt;stroke-linejoin:miter;stroke-opacity:1;stroke-miterlimit:4;stroke-dasharray:none"
       d="M 79.454546,60.909091 L 84.551516,60.909091 L 84.551516,24.909091 L 84.727273,24.909091 L 79.454546,24.909091 L 79.454546,60.909091 z"
       id="path3439" />
    <g
       id="g3493"
       transform="matrix(1.2608695,0,0,1.1658206,-21.573121,-2.1587443)">
      <path
         transform="matrix(1.5714286,0,0,1.5714286,-8.57143,-70.155845)"
         d="M 60.181818,60.909092 A 2.5454545,1.0909091 0 1 1 55.090909,60.909092 A 2.5454545,1.0909091 0 1 1 60.181818,60.909092 z"
         sodipodi:ry="1.0909091"
         sodipodi:rx="2.5454545"
         sodipodi:cy="60.909092"
         sodipodi:cx="57.636364"
         id="path3431"
         style="fill:#93a7ac;fill-opacity:1;fill-rule:evenodd;stroke:none;stroke-width:0.31818181;stroke-linejoin:miter;stroke-miterlimit:4;stroke-dasharray:none;stroke-dashoffset:0;stroke-opacity:1"
         sodipodi:type="arc" />
      <path
         id="path3437"
         d="M 78.017316,25.272727 L 86.181819,25.454545 L 86.181819,13.454545 L 77.818182,13.454545 L 78.017316,25.272727 z"
         style="fill:#93a7ac;fill-rule:evenodd;stroke:none;stroke-width:0.5;stroke-linecap:butt;stroke-linejoin:miter;stroke-miterlimit:4;stroke-dasharray:none;stroke-opacity:1" />
      <path
         transform="matrix(1.5714286,0,0,1.5714286,-8.57143,-82.077926)"
         d="M 60.181818,60.909092 A 2.5454545,1.0909091 0 1 1 55.090909,60.909092 A 2.5454545,1.0909091 0 1 1 60.181818,60.909092 z"
         sodipodi:ry="1.0909091"
         sodipodi:rx="2.5454545"
         sodipodi:cy="60.909092"
         sodipodi:cx="57.636364"
         id="path3435"
         style="fill:#6f8a91;fill-opacity:1;fill-rule:evenodd;stroke:none;stroke-width:0.31818181;stroke-linejoin:miter;stroke-miterlimit:4;stroke-dasharray:none;stroke-dashoffset:0;stroke-opacity:1"
         sodipodi:type="arc" />
    </g>
    <path
       style="fill:#93a7ac;fill-rule:evenodd;stroke:none;stroke-width:0.50000000000000000;stroke-linecap:butt;stroke-linejoin:miter;stroke-opacity:1;stroke-miterlimit:4;stroke-dasharray:none"
       d="M 79.363637,13.727273 L 84.460611,13.727273 L 84.460611,3.3636364 L 84.636361,3.3636364 L 79.363637,3.3636364 L 79.363637,13.727273 z"
       id="path3471" />
    <path
       sodipodi:type="arc"
       style="fill:#6f8a91;fill-opacity:1;fill-rule:evenodd;stroke:none;stroke-width:0.50000000000000000;stroke-linejoin:miter;stroke-miterlimit:4;stroke-dasharray:none;stroke-dashoffset:0;stroke-opacity:1"
       id="path3429"
       sodipodi:cx="57.636364"
       sodipodi:cy="60.909092"
       sodipodi:rx="2.5454545"
       sodipodi:ry="1.0909091"
       d="M 60.181818,60.909092 A 2.5454545,1.0909091 0 1 1 55.090909,60.909092 A 2.5454545,1.0909091 0 1 1 60.181818,60.909092 z"
       transform="translate(24.363636,-57.636365)" />
    <path
       sodipodi:type="arc"
       style="fill:#93a7ac;fill-opacity:1;fill-rule:evenodd;stroke:none;stroke-width:0.50000000000000000;stroke-linejoin:miter;stroke-miterlimit:4;stroke-dasharray:none;stroke-dashoffset:0;stroke-opacity:1"
       id="path3473"
       sodipodi:cx="57.636364"
       sodipodi:cy="60.909092"
       sodipodi:rx="2.5454545"
       sodipodi:ry="1.0909091"
       d="M 60.181818,60.909092 A 2.5454545,1.0909091 0 1 1 55.090909,60.909092 A 2.5454545,1.0909091 0 1 1 60.181818,60.909092 z"
       transform="translate(24.181818,-47.454547)" />
    <path
       style="fill:none;fill-rule:evenodd;stroke:#000000;stroke-width:1px;stroke-linecap:butt;stroke-linejoin:miter;stroke-opacity:1"
       d="M 79.636364,61.454545 L 81.272727,62.181818 L 83.272727,62.181818 L 84.727273,61.090909 L 84.545455,28.909091 L 82.727273,29.454545 L 81.272727,29.636364 L 79.454545,29.272727 L 79.636364,61.454545 z"
       id="path3498" />
    <path
       style="fill:none;fill-rule:evenodd;stroke:#000000;stroke-width:1px;stroke-linecap:butt;stroke-linejoin:miter;stroke-opacity:1"
       d="M 76.727273,28 L 78,28.909091 L 80.181818,29.272727 L 83.090909,29.454545 L 85.090909,28.727273 L 86.545455,28.363636 L 87.272727,27.454545 L 86.909091,13.272727 L 85.454545,12.181818 L 84.363637,11.818182 L 84.363636,2.7272727 L 83.272727,2.1818182 L 81.272727,2 L 79.818182,2.5454545 L 79.272727,3.0909091 L 79.272727,12 L 77.272727,12.545455 L 76.545455,13.272727 L 76.727273,28 z"
       id="path3500"
       sodipodi:nodetypes="ccccccccccccccccccc" />
    <path
       style="fill:none;fill-rule:evenodd;stroke:#000000;stroke-width:1px;stroke-linecap:butt;stroke-linejoin:miter;stroke-opacity:1"
       d="M 76.727273,13.636364 L 78.727273,15.272727 L 81.272727,15.818182 L 84,15.636364 L 85.636364,14.909091 L 87.090909,13.272727"
       id="path3502" />
    <path
       style="fill:none;fill-rule:evenodd;stroke:#000000;stroke-width:1px;stroke-linecap:butt;stroke-linejoin:miter;stroke-opacity:1"
       d="M 78.909091,3.1515156 L 80.363636,4.2424242 L 82.363636,4.3636362 L 84,3.8787875 L 84.727273,2.909091"
       id="path3506"
       sodipodi:nodetypes="ccccc" />
    <path
       style="fill:none;fill-rule:evenodd;stroke:#000000;stroke-width:1px;stroke-linecap:butt;stroke-linejoin:miter;stroke-opacity:1"
       d="M 79.090909,13.333334 L 80.545454,14.424242 L 82.545454,14.545454 L 84.181818,14.060606 L 84.909091,13.090909"
       id="path3508"
       sodipodi:nodetypes="ccccc" />
    <path
       style="fill:none;fill-rule:evenodd;stroke:#000000;stroke-width:1px;stroke-linecap:butt;stroke-linejoin:miter;stroke-opacity:1"
       d="M 79.272727,13.454545 L 79.272727,12.181818"
       id="path3510" />
    <path
       style="fill:none;fill-rule:evenodd;stroke:#000000;stroke-width:1px;stroke-linecap:butt;stroke-linejoin:miter;stroke-opacity:1"
       d="M 84.545455,13.090909 L 84.363636,11.636364"
       id="path3512" />
    <path
       sodipodi:type="arc"
       style="fill:#93a7ac;fill-opacity:1;fill-rule:evenodd;stroke:none;stroke-width:0.5;stroke-linejoin:miter;stroke-miterlimit:4;stroke-dasharray:none;stroke-dashoffset:0;stroke-opacity:1"
       id="path3514"
       sodipodi:cx="57.636364"
       sodipodi:cy="60.909092"
       sodipodi:rx="2.5454545"
       sodipodi:ry="1.0909091"
       d="M 60.181818,60.909092 A 2.5454545,1.0909091 0 1 1 55.090909,60.909092 A 2.5454545,1.0909091 0 1 1 60.181818,60.909092 z"
       transform="translate(-1.9090913,9.0909191e-2)" />
    <path
       style="fill:#93a7ac;fill-rule:evenodd;stroke:none;stroke-width:0.5;stroke-linecap:butt;stroke-linejoin:miter;stroke-miterlimit:4;stroke-dasharray:none;stroke-opacity:1"
       d="M 53.181823,60.818182 L 58.278793,60.818182 L 58.278793,24.818182 L 58.454543,24.818182 L 53.181823,24.818182 L 53.181823,60.818182 z"
       id="path3516" />
    <g
       id="g3518"
       transform="matrix(1.2608695,0,0,1.1658206,-47.845848,-2.2496533)"
       style="fill:#d35f5f">
      <path
         transform="matrix(1.5714286,0,0,1.5714286,-8.57143,-70.155845)"
         d="M 60.181818,60.909092 A 2.5454545,1.0909091 0 1 1 55.090909,60.909092 A 2.5454545,1.0909091 0 1 1 60.181818,60.909092 z"
         sodipodi:ry="1.0909091"
         sodipodi:rx="2.5454545"
         sodipodi:cy="60.909092"
         sodipodi:cx="57.636364"
         id="path3520"
         style="fill:#d35f5f;fill-opacity:1;fill-rule:evenodd;stroke:none;stroke-width:0.31818181000000001;stroke-linejoin:miter;stroke-miterlimit:4;stroke-dasharray:none;stroke-dashoffset:0;stroke-opacity:1"
         sodipodi:type="arc" />
      <path
         id="path3522"
         d="M 78.017316,25.272727 L 86.181819,25.454545 L 86.181819,13.454545 L 77.818182,13.454545 L 78.017316,25.272727 z"
         style="fill:#d35f5f;fill-rule:evenodd;stroke:none;stroke-width:0.50000000000000000;stroke-linecap:butt;stroke-linejoin:miter;stroke-miterlimit:4;stroke-dasharray:none;stroke-opacity:1" />
      <path
         transform="matrix(1.5714286,0,0,1.5714286,-8.57143,-82.077926)"
         d="M 60.181818,60.909092 A 2.5454545,1.0909091 0 1 1 55.090909,60.909092 A 2.5454545,1.0909091 0 1 1 60.181818,60.909092 z"
         sodipodi:ry="1.0909091"
         sodipodi:rx="2.5454545"
         sodipodi:cy="60.909092"
         sodipodi:cx="57.636364"
         id="path3524"
         style="fill:#d35f5f;fill-opacity:1;fill-rule:evenodd;stroke:none;stroke-width:0.31818181000000001;stroke-linejoin:miter;stroke-miterlimit:4;stroke-dasharray:none;stroke-dashoffset:0;stroke-opacity:1"
         sodipodi:type="arc" />
    </g>
    <path
       style="fill:#93a7ac;fill-rule:evenodd;stroke:none;stroke-width:0.5;stroke-linecap:butt;stroke-linejoin:miter;stroke-miterlimit:4;stroke-dasharray:none;stroke-opacity:1"
       d="M 53.090913,13.636364 L 58.187883,13.636364 L 58.187883,3.2727271 L 58.363633,3.2727271 L 53.090913,3.2727271 L 53.090913,13.636364 z"
       id="path3526" />
    <path
       sodipodi:type="arc"
       style="fill:#6f8a91;fill-opacity:1;fill-rule:evenodd;stroke:none;stroke-width:0.5;stroke-linejoin:miter;stroke-miterlimit:4;stroke-dasharray:none;stroke-dashoffset:0;stroke-opacity:1"
       id="path3528"
       sodipodi:cx="57.636364"
       sodipodi:cy="60.909092"
       sodipodi:rx="2.5454545"
       sodipodi:ry="1.0909091"
       d="M 60.181818,60.909092 A 2.5454545,1.0909091 0 1 1 55.090909,60.909092 A 2.5454545,1.0909091 0 1 1 60.181818,60.909092 z"
       transform="translate(-1.9090913,-57.727274)" />
    <path
       sodipodi:type="arc"
       style="fill:#93a7ac;fill-opacity:1;fill-rule:evenodd;stroke:none;stroke-width:0.5;stroke-linejoin:miter;stroke-miterlimit:4;stroke-dasharray:none;stroke-dashoffset:0;stroke-opacity:1"
       id="path3530"
       sodipodi:cx="57.636364"
       sodipodi:cy="60.909092"
       sodipodi:rx="2.5454545"
       sodipodi:ry="1.0909091"
       d="M 60.181818,60.909092 A 2.5454545,1.0909091 0 1 1 55.090909,60.909092 A 2.5454545,1.0909091 0 1 1 60.181818,60.909092 z"
       transform="translate(-2.0909093,-47.545456)" />
    <path
       style="fill:none;fill-rule:evenodd;stroke:#000000;stroke-width:1px;stroke-linecap:butt;stroke-linejoin:miter;stroke-opacity:1"
       d="M 53.363633,61.363636 L 55.000003,62.090909 L 57.000003,62.090909 L 58.454543,61 L 58.272723,28.818182 L 56.454543,29.363636 L 55.000003,29.545455 L 53.181813,29.181818 L 53.363633,61.363636 z"
       id="path3532" />
    <path
       style="fill:none;fill-rule:evenodd;stroke:#000000;stroke-width:1px;stroke-linecap:butt;stroke-linejoin:miter;stroke-opacity:1"
       d="M 50.454546,27.909091 L 51.727273,28.818182 L 53.909093,29.181818 L 56.818183,29.363636 L 58.818183,28.636364 L 60.272723,28.272727 L 61.000003,27.363636 L 60.636363,13.181818 L 59.181813,12.090909 L 58.090913,11.727273 L 58.090913,2.6363641 L 57.000003,2.0909091 L 55.000003,1.9090911 L 53.545453,2.4545451 L 53.000003,3.0000001 L 53.000003,11.909091 L 51.000003,12.454546 L 50.272728,13.181818 L 50.454546,27.909091 z"
       id="path3534"
       sodipodi:nodetypes="ccccccccccccccccccc" />
    <path
       style="fill:none;fill-rule:evenodd;stroke:#000000;stroke-width:1px;stroke-linecap:butt;stroke-linejoin:miter;stroke-opacity:1"
       d="M 50.454546,13.545455 L 52.454543,15.181818 L 55.000003,15.727273 L 57.727273,15.545455 L 59.363633,14.818182 L 60.818183,13.181818"
       id="path3536" />
    <path
       style="fill:none;fill-rule:evenodd;stroke:#000000;stroke-width:1px;stroke-linecap:butt;stroke-linejoin:miter;stroke-opacity:1"
       d="M 52.636363,3.0606071 L 54.090913,4.1515151 L 56.090913,4.2727271 L 57.727273,3.7878781 L 58.454543,2.8181821"
       id="path3538"
       sodipodi:nodetypes="ccccc" />
    <path
       style="fill:none;fill-rule:evenodd;stroke:#000000;stroke-width:1px;stroke-linecap:butt;stroke-linejoin:miter;stroke-opacity:1"
       d="M 52.818183,13.242425 L 54.272723,14.333333 L 56.272723,14.454545 L 57.909093,13.969697 L 58.636363,13"
       id="path3540"
       sodipodi:nodetypes="ccccc" />
    <path
       style="fill:none;fill-rule:evenodd;stroke:#000000;stroke-width:1px;stroke-linecap:butt;stroke-linejoin:miter;stroke-opacity:1"
       d="M 53.000003,13.363636 L 53.000003,12.090909"
       id="path3542" />
    <path
       style="fill:none;fill-rule:evenodd;stroke:#000000;stroke-width:1px;stroke-linecap:butt;stroke-linejoin:miter;stroke-opacity:1"
       d="M 58.272723,13 L 58.090913,11.545455"
       id="path3544" />
    <path
       style="fill:none;fill-rule:evenodd;stroke:#000000;stroke-width:1px;stroke-linecap:butt;stroke-linejoin:miter;stroke-opacity:1"
       d="M 54,32.545455 L 50.363637,33.818182 L 50.545455,53.818182 L 54.363637,52.363636 L 54.363637,52.363636"
       id="path3546" />
    <path
       style="fill:none;fill-rule:evenodd;stroke:#000000;stroke-width:1px;stroke-linecap:butt;stroke-linejoin:miter;stroke-opacity:1"
       d="M 50.727273,34 L 47.818182,30.727273"
       id="path3548" />
    <path
       style="fill:none;fill-rule:evenodd;stroke:#000000;stroke-width:1px;stroke-linecap:butt;stroke-linejoin:miter;stroke-opacity:1"
       d="M 50.545455,53.818182 L 47.818182,50.909091"
       id="path3550" />
    <path
       style="fill:#e3dbdb;fill-rule:evenodd;stroke:#000000;stroke-width:1px;stroke-linecap:butt;stroke-linejoin:miter;stroke-opacity:1"
       d="M 53.272727,15.454545 L 53.272727,28.909091 L 56.727273,29.454545 L 57.454545,28.909091 L 57.272727,15.636364 L 56.909091,14 L 54.181818,14.181818 L 53.272727,15.454545 z"
       id="path3556" />
    <path
       style="fill:none;fill-rule:evenodd;stroke:#000000;stroke-width:1px;stroke-linecap:butt;stroke-linejoin:miter;stroke-opacity:1"
       d="M 57.272727,15.454545 L 55.090909,16 L 53.272727,15.454545"
       id="path3558" />
  </g>
</svg>
